HIERARCHY
ROOT Hips
{
	OFFSET	0.00	0.00	0.00
	CHANNELS 6 Xposition Yposition Zposition Zrotation Xrotation Yrotation
	JOINT LeftUpperLeg
	{
		OFFSET	 0.100000	-0.066564	-0.000554
		CHANNELS 3 Zrotation Xrotation Yrotation
		JOINT LeftLowerLeg
		{
			OFFSET	 0.002447	-0.463436	-0.005172
			CHANNELS 3 Zrotation Xrotation Yrotation
			JOINT LeftFoot
			{
				OFFSET	-0.002447	-0.420480	-0.020576
				CHANNELS 3 Zrotation Xrotation Yrotation
				JOINT LeftToes
				{
					OFFSET	 0.003734	-0.104922	 0.126407
					CHANNELS 3 Zrotation Xrotation Yrotation
					End Site
					{
						OFFSET	 0.000000	 0.000000	 0.059955
					}
				}
			}
		}
	}
	JOINT RightUpperLeg
	{
		OFFSET	-0.100000	-0.066564	-0.000554
		CHANNELS 3 Zrotation Xrotation Yrotation
		JOINT RightLowerLeg
		{
			OFFSET	-0.002447	-0.463436	-0.005146
			CHANNELS 3 Zrotation Xrotation Yrotation
			JOINT RightFoot
			{
				OFFSET	 0.002447	-0.420479	-0.020602
				CHANNELS 3 Zrotation Xrotation Yrotation
				JOINT RightToes
				{
					OFFSET	-0.003734	-0.104922	 0.126407
					CHANNELS 3 Zrotation Xrotation Yrotation
					End Site
					{
						OFFSET	-0.000000	 0.000000	 0.059955
					}
				}
			}
		}
	}
	JOINT Spine
	{
		OFFSET	 0.000000	 0.099235	-0.012273
		CHANNELS 3 Zrotation Xrotation Yrotation
		JOINT Chest
		{
			OFFSET	-0.000001	 0.116455	-0.014223
			CHANNELS 3 Zrotation Xrotation Yrotation
			JOINT UpperChest
			{
				OFFSET	 0.000001	 0.133602	-0.016265
				CHANNELS 3 Zrotation Xrotation Yrotation
				JOINT LeftShoulder
				{
					OFFSET	 0.061058	 0.091105	 0.007056
					CHANNELS 3 Zrotation Xrotation Yrotation
					JOINT LeftUpperArm
					{
						OFFSET	 0.133942	-0.002659	-0.026009
						CHANNELS 3 Zrotation Xrotation Yrotation
						JOINT LeftLowerArm
						{
							OFFSET	 0.274047	 0.000000	 0.000000
							CHANNELS 3 Zrotation Xrotation Yrotation
							JOINT LeftHand
							{
								OFFSET	 0.276145	 0.000000	 0.000000
								CHANNELS 3 Zrotation Xrotation Yrotation
								End Site
								{
									OFFSET	 0.165687	 0.000000	 0.000000
								}
							}
						}
					}
				}
				JOINT Neck
				{
					OFFSET	 0.000000	 0.150325	 0.007929
					CHANNELS 3 Zrotation Xrotation Yrotation
					JOINT Head
					{
						OFFSET	 0.000000	 0.103218	 0.031424
						CHANNELS 3 Zrotation Xrotation Yrotation
						End Site
						{
							OFFSET	 0.000000	 0.061931	 0.018855
						}
					}
				}
				JOINT RightShoulder
				{
					OFFSET	-0.061057	 0.091105	 0.007056
					CHANNELS 3 Zrotation Xrotation Yrotation
					JOINT RightUpperArm
					{
						OFFSET	-0.133943	-0.002660	-0.026009
						CHANNELS 3 Zrotation Xrotation Yrotation
						JOINT RightLowerArm
						{
							OFFSET	-0.274047	 0.000000	 0.000000
							CHANNELS 3 Zrotation Xrotation Yrotation
							JOINT RightHand
							{
								OFFSET	-0.276145	 0.000000	 0.000000
								CHANNELS 3 Zrotation Xrotation Yrotation
								End Site
								{
									OFFSET	-0.165687	 0.000000	 0.000000
								}
							}
						}
					}
				}
			}
		}
	}
}
MOTION
Frames:    9
Frame Time: 0.03333334
-0.838620	 1.034970	 0.495230	 13.109570	-0.403961	 14.357680	 10.293560	-0.210813	 18.066290	-0.014305	 3.925853	-0.002719	 4.548956	 40.868170	 2.389153	-0.000418	-18.094440	 5.998698	-14.450300	-2.691199	-7.488375	-0.222842	 31.679950	 0.064248	-5.107157	-23.587190	-20.306410	 0.000009	 0.385845	 0.000123	 3.326287	 0.026895	 0.664624	-0.000000	 0.000000	 0.000000	 6.665174	 0.095000	 1.328105	 10.396320	-4.450464	-4.601169	-55.805240	-23.099370	-45.036440	-11.733320	-15.763410	-31.436040	 17.996840	-32.631000	-21.852690	-5.639166	-11.803670	-3.680094	-5.571699	-11.833820	-3.702321	-11.308730	-11.084000	-1.334958	 51.712840	-0.339735	 53.391340	 16.629030	 23.652600	 71.557210	-26.109870	-28.029760	 11.346930
-0.842000	 1.034150	 0.496800	 13.323950	-0.311451	 14.251920	 9.916977	 1.070252	 18.260330	 0.007482	 1.234532	-0.000632	 4.825033	 42.424150	 1.435548	-0.000450	-18.225480	 5.990782	-14.534820	-2.898273	-7.554335	-0.170174	 32.095750	 0.048468	-5.297368	-23.858590	-20.359400	-0.000196	 0.353237	-0.000145	 3.236978	 0.101868	 0.724922	-0.000000	 0.000000	 0.000000	 6.482439	 0.245068	 1.446742	 10.337780	-4.462668	-4.600232	-56.073390	-23.201750	-44.669510	-11.986020	-15.250700	-31.555850	 18.722750	-32.666400	-21.102110	-5.863360	-11.312210	-3.729450	-5.711415	-11.455170	-3.864408	-11.406910	-11.100100	-1.160335	 51.884680	-0.174591	 53.251300	 16.443350	 23.707030	 71.628750	-26.402450	-27.446720	 11.776520
-0.844810	 1.033500	 0.498080	 13.330130	-0.351991	 14.446290	 9.988224	 1.601953	 16.899930	 0.000300	 0.083228	 0.000599	 4.108753	 43.362510	 2.162725	 0.000624	-18.360090	 6.005166	-14.316570	-2.881776	-7.676322	-0.192353	 32.352460	 0.055639	-5.547630	-24.047270	-20.594660	-0.000429	 0.354045	-0.000117	 3.240848	 0.167769	 0.672871	-0.000000	 0.000000	 0.000000	 6.490388	 0.372768	 1.339358	 10.561020	-4.668054	-4.833880	-56.109700	-23.080960	-44.767120	-12.035900	-15.246400	-31.205690	 19.324440	-31.945420	-20.852030	-5.830570	-10.918850	-4.048004	-5.823459	-11.057120	-3.952083	-11.248270	-11.220730	-1.335634	 51.966570	 0.042815	 53.111390	 16.504200	 23.433930	 71.614860	-25.839270	-27.153590	 11.961640
-0.847330	 1.032940	 0.499170	 13.386980	-0.348126	 14.596860	 10.145530	 1.578389	 16.406390	-0.000150	 0.066811	-0.000169	 3.917361	 43.646460	 2.096008	 0.000010	-18.361380	 5.941360	-14.162870	-2.907791	-7.709556	-0.225572	 32.584990	 0.066025	-5.729042	-24.196890	-20.848650	 0.000235	 0.331248	 0.000261	 3.241446	 0.196040	 0.637942	-0.000000	 0.000000	 0.000000	 6.493767	 0.428001	 1.266704	 10.508490	-4.744295	-4.823498	-56.140430	-23.051660	-44.874360	-12.000250	-15.142700	-30.862980	 19.873830	-31.812110	-20.696060	-5.893744	-10.718670	-4.040013	-5.884595	-10.782410	-3.972592	-11.248620	-11.401090	-1.247036	 51.994270	 0.226958	 53.018310	 16.553460	 23.433820	 71.493800	-25.941930	-27.474340	 11.764400
-0.849950	 1.032360	 0.500080	 13.479760	-0.217029	 14.680720	 10.238020	 1.428183	 16.404490	 0.000077	 0.082903	-0.001207	 3.838564	 43.922650	 1.780370	-0.000170	-18.280600	 5.813448	-14.069950	-3.108821	-7.656208	-0.252927	 32.875680	 0.074772	-5.775767	-24.355370	-21.133230	 0.000312	 0.306012	-0.000547	 3.264437	 0.181783	 0.630061	-0.000000	 0.000000	 0.000000	 6.538406	 0.400939	 1.251792	 10.349970	-4.733707	-4.752700	-56.082610	-23.013970	-44.937320	-11.962560	-15.091490	-30.609000	 20.168550	-32.153640	-20.557940	-6.085159	-10.260950	-4.011057	-6.125804	-10.235380	-3.992354	-11.312250	-11.498170	-1.131117	 52.018010	 0.308139	 53.236510	 16.904200	 23.606600	 70.946080	-26.137800	-28.486520	 11.541410
-0.851890	 1.031870	 0.500650	 13.568380	-0.029230	 14.901910	 10.257180	 1.200137	 16.141620	 0.000192	 0.092602	 0.000010	 3.661442	 44.060430	 1.754192	 0.000368	-18.081150	 5.667232	-13.983180	-3.302880	-7.389544	-0.153670	 33.102650	 0.045760	-5.974391	-24.481190	-21.846640	 0.000564	 0.308466	 0.000087	 3.275870	 0.147576	 0.616058	-0.000000	 0.000000	 0.000000	 6.561925	 0.329547	 1.224590	 10.140860	-4.694953	-4.803956	-55.924040	-22.793400	-44.921240	-11.847830	-15.330670	-30.740690	 20.447150	-32.386960	-20.011450	-6.267486	-9.845824	-4.136051	-6.283285	-9.776277	-4.099242	-11.432790	-11.533900	-1.131204	 51.966580	 0.577026	 53.220020	 16.883130	 23.405920	 70.876820	-25.985670	-28.385120	 11.701730
-0.853310	 1.031480	 0.501030	 13.620240	 0.036685	 15.046260	 10.303740	 1.111161	 16.001410	 0.000038	 0.092785	 0.000473	 3.707119	 44.103910	 1.501395	-0.000571	-17.944830	 5.578236	-13.866460	-3.392040	-7.322980	-0.243774	 33.269770	 0.072787	-6.090425	-24.596310	-22.141920	 0.000718	 0.307664	 0.000135	 3.279617	 0.144878	 0.619919	-0.000000	 0.000000	 0.000000	 6.570559	 0.327015	 1.234082	 10.077280	-4.556719	-4.830784	-55.809780	-22.852810	-44.944800	-12.040280	-15.508830	-30.819820	 20.588160	-32.291710	-19.607450	-6.371730	-9.535807	-4.176132	-6.382298	-9.532867	-4.186059	-11.458690	-11.587530	-1.054121	 51.982320	 0.646588	 53.104070	 16.576450	 23.516650	 71.006820	-26.236170	-28.044990	 11.528310
-0.855180	 1.030890	 0.501270	 13.619580	 0.112466	 15.281710	 10.450420	 0.984461	 15.023350	 0.000333	 0.083633	-0.001112	 3.068936	 44.109970	 2.014916	 0.000688	-17.824950	 5.475019	-13.654390	-3.502289	-7.091429	-0.205743	 33.461070	 0.061402	-6.425629	-24.695580	-22.784030	-0.000224	 0.362259	-0.000206	 3.291971	 0.141666	 0.624327	-0.000000	 0.000000	 0.000000	 6.595537	 0.321631	 1.240094	 10.100200	-4.554289	-4.869765	-55.673960	-22.894920	-45.044700	-12.224160	-15.589430	-30.807620	 21.406320	-32.129120	-19.079970	-6.417144	-9.516162	-4.254435	-6.442666	-9.509255	-4.260063	-11.453720	-11.720620	-1.015801	 52.086250	 0.617620	 53.076230	 16.529490	 23.680740	 70.904950	-26.341740	-27.351170	 11.717660
-0.856150	 1.030620	 0.501520	 13.663960	 0.085194	 15.587180	 10.531560	 0.948762	 14.087990	 0.000650	 0.092183	-0.000308	 2.361979	 44.131960	 2.586119	 0.000099	-17.789930	 5.386529	-13.505270	-3.412688	-7.026895	-0.279549	 33.543130	 0.084726	-6.548779	-24.802340	-23.243850	 0.000502	 0.431678	 0.000177	 3.310301	 0.162145	 0.576156	-0.000000	 0.000000	 0.000000	 6.631193	 0.360376	 1.144326	 10.113330	-4.565270	-4.891769	-55.632350	-22.859650	-45.070900	-12.368830	-15.546600	-30.807370	 21.735660	-31.885040	-18.812620	-6.463146	-9.526612	-4.382605	-6.485400	-9.575065	-4.290024	-11.519710	-11.756560	-1.058761	 52.140020	 0.718857	 52.974910	 16.425270	 23.476130	 71.115490	-26.119330	-26.965660	 11.500790
